# xmcd CD Database Entry
#
# Track frame offsets:
# 182
# 38422
# 57810
# 69707
# 84847
# 128715
# 154967
# 188262
#
# Disc length: 2884 seconds
#
# Revision: 1
# Processed by: cddbd v1.4b41PL1 Copyright (c) Steve Scherf et al.
# Submitted via: tcd 2.0b
#
DISCID=570b4208
DTITLE=George Gershwin - Porgy and Bess
DYEAR=1900
DGENRE=
TTITLE0=Introduction - Jasbo Brown Blues - Da-doo-da - Summertime
TTITLE1=My Man's Gone Now
TTITLE2=Oh, I Got Plenty O'Nuttin'
TTITLE3=Buzzdard, Keep On Flyin' Over
TTITLE4=Bess, You Is My Woman Now - Oh, I Can't Sit Down
TTITLE5=I Ain' Got No Shame - It Ain't Necessarily So
TTITLE6=Now De Time, Oh Gawd
TTITLE7=Tell Me Quick Where's Bess - Oh Lawd, I"m On My Way
EXTD=
EXTT0=
EXTT1=
EXTT2=
EXTT3=
EXTT4=
EXTT5=
EXTT6=
EXTT7=
PLAYORDER=
